<?xml version="1.0" encoding="utf-8"?>
<!-- Generator: Adobe Illustrator 19.0.0, SVG Export Plug-In . SVG Version: 6.00 Build 0)  -->
<svg version="1.1" id="Layer_1" xmlns="http://www.w3.org/2000/svg" xmlns:xlink="http://www.w3.org/1999/xlink" x="0px" y="0px"
	 viewBox="0 0 500 500" style="enable-background:new 0 0 500 500;" xml:space="preserve">
<style type="text/css">
	.st0{fill:#FFFFFF;}
</style>
<g id="XMLID_4337_">
	<path id="XMLID_4340_" class="st0" d="M160.9,476c-1.3-22,10.8-47.8,26-49.6c9.5-1.1,1.6-9.9,11.2-10.2c3.1-0.1-8.1-9.3-8.1-9.3
		c0-54.5,0-82,0-146h-72.7l-53-32.5l53-32.5h106c0,0,1-99.9,1.1-138.8c0-11.2,6.9-28.3,17.1-31.8c9.7-3.4,20.8-4.1,27.3,4.1
		c3.6,4.6-4.8,8-4.8,13.8c0,85.3-9.9,168.6-9.9,253.8c0,35.2,0,70.4,0,105.7c0,1.2,10.2,2.5,10.3,4.2c10.5,0,25.8,0,36.1,0
		c11.3,0.1,23.2,22.7,30,31.9c3.9,5.3,8.8,15,8.5,37C279.5,476,220.3,476,160.9,476z"/>
	<path id="XMLID_4339_" class="st0" d="M276,324.9c0-27.1,0-20.9,0-63.9c0,0,26.2,0,31.9,0c23,0,74.4,0,74.4,0l53,32l-52.6,36.2
		c0,0-67.4-1.9-97.5-1.9C284.6,327.3,276,325,276,324.9z"/>
	<path id="XMLID_4338_" class="st0" d="M276,165.9c0-27.1,0-33.9,0-55.9c0,0,26.2,0,31.9,0c23,0,21.4,0,21.4,0l53,28l-52.6,34.2
		c0,0-14.4-2.9-44.5-2.9C284.6,169.3,276,166.1,276,165.9z"/>
</g>
</svg>
