<?xml version="1.0" encoding="utf-8"?>
<!-- Generator: Adobe Illustrator 19.0.0, SVG Export Plug-In . SVG Version: 6.00 Build 0)  -->
<svg version="1.1" id="Layer_1" xmlns="http://www.w3.org/2000/svg" xmlns:xlink="http://www.w3.org/1999/xlink" x="0px" y="0px"
	 viewBox="0 0 500 500" style="enable-background:new 0 0 500 500;" xml:space="preserve">
<style type="text/css">
	.st0{fill:#FFFFFF;}
</style>
<g id="XMLID_4337_">
	<path id="XMLID_4340_" class="st0" d="M365.6,260c-0.1-1,0.5-2.2,1.2-2.3c0.4-0.1,0.1-0.5,0.5-0.5c0.1,0-0.4-0.4-0.4-0.4
		c0-2.5,0-3.8,0-6.8h-3.4l-2.5-1.5l2.5-1.5h4.9c0,0,0-4.7,0.1-6.5c0-0.5,0.3-1.3,0.8-1.5c0.5-0.2,1-0.2,1.3,0.2
		c0.2,0.2-0.2,0.4-0.2,0.6c0,4-0.5,7.8-0.5,11.8c0,1.6,0,3.3,0,4.9c0,0.1,0.5,0.1,0.5,0.2c0.5,0,1.2,0,1.7,0c0.5,0,1.1,1.1,1.4,1.5
		c0.2,0.2,0.4,0.7,0.4,1.7C371.2,260,368.4,260,365.6,260z"/>
	<path id="XMLID_4339_" class="st0" d="M371,253c0-1.3,0-1,0-3c0,0,1.2,0,1.5,0c1.1,0,3.5,0,3.5,0l2.5,1.5l-2.4,1.7
		c0,0-3.1-0.1-4.5-0.1C371.4,253.1,371,253,371,253z"/>
	<path id="XMLID_4338_" class="st0" d="M371,245.6c0-1.3,0-1.6,0-2.6c0,0,1.2,0,1.5,0c1.1,0,1,0,1,0l2.5,1.3l-2.4,1.6
		c0,0-0.7-0.1-2.1-0.1C371.4,245.7,371,245.6,371,245.6z"/>
</g>
</svg>
