<?xml version="1.0" encoding="utf-8"?>
<!-- Generator: Adobe Illustrator 19.0.0, SVG Export Plug-In . SVG Version: 6.00 Build 0)  -->
<svg version="1.1" id="Layer_1" xmlns="http://www.w3.org/2000/svg" xmlns:xlink="http://www.w3.org/1999/xlink" x="0px" y="0px"
	 viewBox="0 0 500 500" style="enable-background:new 0 0 500 500;" xml:space="preserve">
<style type="text/css">
	.st0{fill:#43505C;}
</style>
<g id="XMLID_4351_">
	<g id="XMLID_4352_">
		<g id="XMLID_46_">
			<path id="XMLID_51_" class="st0" d="M409.3,74.1c-21.9,0-39.7,17.8-39.7,39.7c0,21.9,17.8,39.7,39.7,39.7
				c21.9,0,39.7-17.8,39.7-39.7C449,91.9,431.2,74.1,409.3,74.1z"/>
			<path id="XMLID_48_" class="st0" d="M149,284c6,0,12-2.7,15.9-7.8l72.3-95.9c36.7-48.7,26.9-117.8-21.7-154.5
				c-19.9-15-43.2-22.2-66.4-22.2c-23.1,0-46.5,7.2-66.4,22.2C33.9,62.4,24.2,131.6,60.9,180.3l72.3,95.9C137,281.3,143,284,149,284
				z M109.3,113.9c0-21.9,17.8-39.7,39.7-39.7c21.9,0,39.7,17.8,39.7,39.7c0,21.9-17.8,39.7-39.7,39.7
				C127,153.6,109.3,135.8,109.3,113.9z"/>
			<path id="XMLID_47_" class="st0" d="M414.8,431.9c-8.5-6-20.2-3.9-26.1,4.6c-8,11.4-19.7,18.8-33.1,20.9
				c-13,2.1-26.1-1.2-36.8-9.3c-13.2-9.9-21-26.1-20.9-43.2c4.9-2.6,9.4-6.3,12.9-11l30.7-40.7c6.6-8.8,4.8-14.9-3.9-21.6
				c-3.6-2.7-7.8,2.3-11.9,2.3h-46.6h-46.6c-4.2,0-8.4-5-11.9-2.3c-8.8,6.6-10.5,15.9-3.9,24.7l30.7,39.2c3.6,4.7,8,7.6,12.9,10.2
				c0.1,17.1-7.7,32.8-20.9,42.8c-10.7,8-23.8,11.2-36.8,9.1c-13.3-2.1-25.1-9.6-33.1-21c-6-8.5-17.7-10.6-26.1-4.6
				c-8.5,6-10.5,17.6-4.6,26.1c13.9,19.8,34.5,32.7,57.9,36.4c4.5,0.7,9.1,1.1,13.6,1.1c18.5,0,36.5-6,51.7-17.4
				c6.5-4.9,12.3-10.7,17.2-17.1c4.9,6.4,10.5,12.2,17.1,17.1c15.2,11.4,33.2,17.4,51.7,17.4c4.5,0,9-0.4,13.6-1.1
				c23.5-3.7,44-16.7,57.9-36.4C425.3,449.6,423.3,437.9,414.8,431.9z"/>
		</g>
	</g>
</g>
</svg>
